<svg viewBox="0,0,45,45" xmlns="http://www.w3.org/2000/svg" class="logo-icon">
 <g>
  <polygon points="12.48 26.28 7.82 26.04 7.82 33.91 12.48 34.5 12.48 26.28" id="_Path_"/>
  <polygon points="20.07 18.06 14.7 18.22 14.7 34.78 20.07 35.46 20.07 18.06" id="_Path_2"/>
  <polygon points="28.88 8.52 22.64 9.2 22.64 35.79 28.88 36.58 28.88 8.52" id="_Path_3"/>
  <path d="m4.72,33.07a0.71,0.71 0 0 1 -0.36,-0.16a1.27,1.27 0 0 1 -0.29,-0.35a1.93,1.93 0 0 1 -0.19,-0.49a2.35,2.35 0 0 1 -0.07,-0.58l0,-20.59a2.35,2.35 0 0 1 0.07,-0.58a1.93,1.93 0 0 1 0.19,-0.49a1.26,1.26 0 0 1 0.29,-0.35a0.72,0.72 0 0 1 0.36,-0.16l29.13,-3.7a1.26,1.26 0 0 1 0.62,0.07a1.38,1.38 0 0 1 0.53,0.31a1.75,1.75 0 0 1 0.35,0.58a2.19,2.19 0 0 1 0.13,0.75l0,27.67a2.19,2.19 0 0 1 -0.13,0.75a1.76,1.76 0 0 1 -0.35,0.58a1.37,1.37 0 0 1 -0.51,0.36a1.26,1.26 0 0 1 -0.62,0.08l-5,-0.63l-6.25,-0.79l-2.55,-0.35l-5.37,-0.68l-2.22,-0.28l-4.66,-0.59l-3.11,-0.4m29.14,-31.34l-29.13,4.63a2.2,2.2 0 0 0 -1.07,0.52a3.84,3.84 0 0 0 -0.85,1.07a5.89,5.89 0 0 0 -0.57,1.46a7.11,7.11 0 0 0 -0.23,1.7l0,20.2a7.11,7.11 0 0 0 0.23,1.71a5.91,5.91 0 0 0 0.57,1.46a3.84,3.84 0 0 0 0.85,1.07a2.21,2.21 0 0 0 1.07,0.47l29.13,4.63a3.81,3.81 0 0 0 1.89,-0.17a4.09,4.09 0 0 0 1.59,-1a5.19,5.19 0 0 0 1.09,-1.77a6.57,6.57 0 0 0 0.4,-2.31l0,-28.38a6.57,6.57 0 0 0 -0.4,-2.31a5.19,5.19 0 0 0 -1.09,-1.77a4.09,4.09 0 0 0 -1.59,-1a3.81,3.81 0 0 0 -1.89,-0.17" class="cls-1" id="_Compound_Path_"/>
 </g>
</svg>
